<svg xmlns="http://www.w3.org/2000/svg" version="1.1" xmlns:xlink="http://www.w3.org/1999/xlink" xmlns:svgjs="http://svgjs.dev/svgjs" width="512px" height="512px"><svg xmlns="http://www.w3.org/2000/svg" xmlns:xlink="http://www.w3.org/1999/xlink" viewBox="0 0 64 64" width="512px" height="512px"><defs><linearGradient id="SvgjsLinearGradient1029" x1="31.999" x2="31.999" y1="5.087" y2="13.413" gradientUnits="userSpaceOnUse"><stop offset="0" stop-color="#ff4f4f"></stop><stop offset=".195" stop-color="#f14342"></stop><stop offset=".557" stop-color="#ce2320"></stop><stop offset=".849" stop-color="#ad0600"></stop><stop offset="1" stop-color="#870500"></stop></linearGradient><linearGradient id="SvgjsLinearGradient1028" x1="39.272" x2="24.648" y1="1.657" y2="12.401" gradientUnits="userSpaceOnUse"><stop offset="0" stop-color="#ffe6f0"></stop><stop offset=".157" stop-color="#fee2eb"></stop><stop offset=".33" stop-color="#fdd5de"></stop><stop offset=".512" stop-color="#fac0c8"></stop><stop offset=".699" stop-color="#f6a3a9"></stop><stop offset=".761" stop-color="#f5979d"></stop><stop offset="1" stop-color="#e882bc"></stop></linearGradient><linearGradient id="SvgjsLinearGradient1027" x1="47.095" x2="18.521" y1="19.353" y2="60.415" gradientUnits="userSpaceOnUse"><stop offset="0" stop-color="#fffafc"></stop><stop offset="1" stop-color="#fec6d3"></stop></linearGradient><linearGradient id="SvgjsLinearGradient1026" x1="64.238" x2="45.864" y1="6.819" y2="10.944" gradientUnits="userSpaceOnUse"><stop offset="0" stop-color="#ff4f4f"></stop><stop offset=".229" stop-color="#f14342"></stop><stop offset=".656" stop-color="#ce2320"></stop><stop offset="1" stop-color="#ad0600"></stop></linearGradient><linearGradient id="SvgjsLinearGradient1025" x1="46.614" x2="18.939" y1="24.591" y2="55.754" xlink:href="#Mwerkodl9F31Uuolhoc0Sa"></linearGradient><linearGradient id="SvgjsLinearGradient1024" x1="31.999" x2="31.999" y1="33.438" y2="48.069" xlink:href="#Mwerkodl9F31Uuolhoc0Sb"></linearGradient><linearGradient id="SvgjsLinearGradient1023" x1="31.999" x2="31.999" y1="52.112" y2="38.777" gradientUnits="userSpaceOnUse"><stop offset="0" stop-color="#990602" stop-opacity="0"></stop><stop offset="1" stop-color="#690300"></stop></linearGradient><linearGradient id="SvgjsLinearGradient1022" x1="31.999" x2="31.999" y1="13.3" y2="19.154" xlink:href="#Mwerkodl9F31Uuolhoc0Sc"></linearGradient><linearGradient id="SvgjsLinearGradient1021" x1="31.999" x2="31.999" y1="5.087" y2="13.413" gradientUnits="userSpaceOnUse"><stop offset=".005" stop-color="#990602" stop-opacity="0"></stop><stop offset=".277" stop-color="#910502" stop-opacity=".087"></stop><stop offset=".721" stop-color="#7a0401" stop-opacity=".321"></stop><stop offset="1" stop-color="#690300" stop-opacity=".5"></stop></linearGradient><linearGradient id="SvgjsLinearGradient1020" x1="35.533" x2="29.87" y1="9.542" y2="19.892" xlink:href="#Mwerkodl9F31Uuolhoc0Sd"></linearGradient><linearGradient id="SvgjsLinearGradient1019" x1="44.233" x2="13.633" y1="28.356" y2="60.081" gradientUnits="userSpaceOnUse"><stop offset="0" stop-color="#ffe6f0" stop-opacity="0"></stop><stop offset=".067" stop-color="#ffe4ee" stop-opacity=".026"></stop><stop offset=".159" stop-color="#fedee8" stop-opacity=".098"></stop><stop offset=".265" stop-color="#fdd5de" stop-opacity=".216"></stop><stop offset=".382" stop-color="#fbc8d0" stop-opacity=".381"></stop><stop offset=".508" stop-color="#f9b7bf" stop-opacity=".593"></stop><stop offset=".639" stop-color="#f7a3aa" stop-opacity=".847"></stop><stop offset=".711" stop-color="#f5979d"></stop><stop offset=".856" stop-color="#ed8baf"></stop><stop offset="1" stop-color="#e882bc"></stop></linearGradient><linearGradient id="SvgjsLinearGradient1018" x1="37.437" x2="16.737" y1="33.843" y2="58.668" gradientUnits="userSpaceOnUse"><stop offset="0" stop-color="#ca201c" stop-opacity="0"></stop><stop offset=".176" stop-color="#bf1d19" stop-opacity=".111"></stop><stop offset=".492" stop-color="#a21411" stop-opacity=".408"></stop><stop offset=".908" stop-color="#740603" stop-opacity=".885"></stop><stop offset="1" stop-color="#690300"></stop></linearGradient><linearGradient id="SvgjsLinearGradient1017" x1="42.629" x2="57.141" y1="40.482" y2="41.719" gradientUnits="userSpaceOnUse"><stop offset="0" stop-color="#ffe6f0" stop-opacity="0"></stop><stop offset=".113" stop-color="#ffe3ed" stop-opacity=".019"></stop><stop offset=".239" stop-color="#fedae4" stop-opacity=".073"></stop><stop offset=".371" stop-color="#fcccd5" stop-opacity=".164"></stop><stop offset=".507" stop-color="#f9b8c0" stop-opacity=".29"></stop><stop offset=".644" stop-color="#f69fa5" stop-opacity=".452"></stop><stop offset=".681" stop-color="#f5979d" stop-opacity=".5"></stop><stop offset=".699" stop-color="#f4969f" stop-opacity=".536"></stop><stop offset=".839" stop-color="#ee8baf" stop-opacity=".786"></stop><stop offset=".944" stop-color="#ea84b8" stop-opacity=".941"></stop><stop offset="1" stop-color="#e882bc"></stop></linearGradient><linearGradient id="SvgjsLinearGradient1016" x1="39.009" x2="36.253" y1="38.968" y2="34.974" gradientUnits="userSpaceOnUse"><stop offset="0" stop-color="#fffafc" stop-opacity="0"></stop><stop offset=".335" stop-color="#fffbfd" stop-opacity=".373"></stop><stop offset=".661" stop-color="#fefdfd" stop-opacity=".71"></stop><stop offset=".889" stop-color="#fefefe" stop-opacity=".919"></stop><stop offset="1" stop-color="#fefefe"></stop></linearGradient><linearGradient id="SvgjsLinearGradient1015" x1="30.736" x2="28.08" y1="37.682" y2="34.463" xlink:href="#Mwerkodl9F31Uuolhoc0Se"></linearGradient></defs><g data-name="28-Perfume"><rect width="8" height="8" x="28" y="5" fill="url(#Mwerkodl9F31Uuolhoc0Sa)"></rect><polygon fill="url(#Mwerkodl9F31Uuolhoc0Sb)" points="39.999 1 39.999 13 35.999 13 35.999 5 28 5 28 13 24 13 24 1 39.999 1"></polygon><path fill="url(#Mwerkodl9F31Uuolhoc0Sf)" d="M42.189,63H21.81A24.018,24.018,0,0,1,7,41.05,24.048,24.048,0,0,1,22.01,19H41.989A24.048,24.048,0,0,1,57,41.05,24.018,24.018,0,0,1,42.189,63ZM23.03,60H40.969A20.75,20.75,0,0,0,54,41.04,19.978,19.978,0,0,0,49.109,28H14.89A19.978,19.978,0,0,0,10,41.04,20.75,20.75,0,0,0,23.03,60Z"></path><path fill="url(#Mwerkodl9F31Uuolhoc0Sc)" d="M63,8.89a3.553,3.553,0,0,1-1.2,2.65c-1.67,1.6-2.95,1.6-4.11,1.31,0,.05.02.1.02.15a3.183,3.183,0,0,1-6.36-.17,1.185,1.185,0,0,0-.82-1.12L45,9l5.53-2.71a1.185,1.185,0,0,0,.82-1.12A3.2,3.2,0,0,1,54.359,2a3.11,3.11,0,0,1,3.35,3c0,.05-.02.1-.02.15A4.266,4.266,0,0,1,58.769,5,4.138,4.138,0,0,1,63,8.89Z"></path><path fill="url(#Mwerkodl9F31Uuolhoc0Sg)" d="M32,35.09A7.483,7.483,0,0,0,27.48,33C25.06,33,22,34.2,22,38.38c0,3.69,7.789,9.25,9.619,10.5a.662.662,0,0,0,.76,0c1.83-1.25,9.62-6.81,9.62-10.5,0-4.18-3.06-5.38-5.48-5.38A7.484,7.484,0,0,0,32,35.09ZM49.109,28A19.978,19.978,0,0,1,54,41.04,20.75,20.75,0,0,1,40.969,60H23.03A20.75,20.75,0,0,1,10,41.04,19.978,19.978,0,0,1,14.89,28Z"></path><path fill="url(#Mwerkodl9F31Uuolhoc0Sh)" d="M27.48,33A7.483,7.483,0,0,1,32,35.09,7.484,7.484,0,0,1,36.519,33c2.42,0,5.48,1.2,5.48,5.38,0,3.69-7.79,9.25-9.62,10.5a.662.662,0,0,1-.76,0C29.789,47.63,22,42.07,22,38.38,22,34.2,25.06,33,27.48,33Z"></path><path fill="url(#Mwerkodl9F31Uuolhoc0Si)" d="M32.379,48.88a.662.662,0,0,1-.76,0c-1.707-1.166-8.594-6.081-9.513-9.732A7.251,7.251,0,0,0,22,40.38c0,3.69,7.789,9.25,9.619,10.5a.662.662,0,0,0,.76,0c1.83-1.25,9.62-6.81,9.62-10.5a7.251,7.251,0,0,0-.106-1.232C40.974,42.8,34.086,47.714,32.379,48.88Z"></path><rect width="20" height="6" x="22" y="13" fill="url(#Mwerkodl9F31Uuolhoc0Sj)"></rect><path fill="url(#Mwerkodl9F31Uuolhoc0Sd)" d="M31,9V5H28v8h8V11H33A2,2,0,0,1,31,9Z"></path><path fill="url(#Mwerkodl9F31Uuolhoc0Sk)" d="M22,13v6H42V16H29a2,2,0,0,1-2-2V13Z"></path><path fill="url(#Mwerkodl9F31Uuolhoc0Sl)" d="M40.969,60H23.03A20.75,20.75,0,0,1,10,41.04,19.978,19.978,0,0,1,14.89,28h3.9a23.571,23.571,0,0,1,4.7-9H22.01A24.048,24.048,0,0,0,7,41.05,24.018,24.018,0,0,0,21.81,63H42.189A25.021,25.021,0,0,0,50.9,56.771a25.78,25.78,0,0,1-6.124,1.162A22.267,22.267,0,0,1,40.969,60Z"></path><path fill="url(#Mwerkodl9F31Uuolhoc0Sm)" d="M10,41.04A20.75,20.75,0,0,0,23.03,60H40.969a22.267,22.267,0,0,0,3.8-2.067C44.186,57.973,43.6,58,43,58,29.192,58,18,47.255,18,34a23.142,23.142,0,0,1,.787-6h-3.9A19.978,19.978,0,0,0,10,41.04Z"></path><path fill="url(#Mwerkodl9F31Uuolhoc0Sn)" d="M57,41.05a23.627,23.627,0,0,0-9.071-18.516,2.882,2.882,0,0,0-3.44-.076l-.152.106a2.921,2.921,0,0,0-.091,4.692,17.428,17.428,0,0,1,.46,27.185,2.91,2.91,0,0,0,.31,4.694l.175.11a2.9,2.9,0,0,0,3.407-.231A23.573,23.573,0,0,0,57,41.05Z"></path><path fill="url(#Mwerkodl9F31Uuolhoc0Se)" d="M36.211,39.036a1.608,1.608,0,0,0,2.56.529,4.684,4.684,0,0,0,.722-.914,3.324,3.324,0,0,0-.031-3.574,2.871,2.871,0,0,0-1.558-.993c-1.1-.3-3.986.156-3.9,1.891.038.8,1.117,1.439,1.551,2.016A7.361,7.361,0,0,1,36.211,39.036Z"></path><path fill="url(#Mwerkodl9F31Uuolhoc0So)" d="M29.243,37.318c.6.7,1.392.9,1.6.422a1.782,1.782,0,0,0,.148-.587,3.268,3.268,0,0,0-1.038-2.371,3.068,3.068,0,0,0-1.168-.7c-.71-.227-2.216-.008-1.673,1.146.251.533,1.044.985,1.456,1.38C28.8,36.83,29.03,37.068,29.243,37.318Z"></path><path d="M42.194,64H21.806a1,1,0,0,1-.4-.081A25.06,25.06,0,0,1,6,41.045,25.037,25.037,0,0,1,21.628,18.078.987.987,0,0,1,22.015,18h19.97a.987.987,0,0,1,.387.078A25.037,25.037,0,0,1,58,41.045,25.06,25.06,0,0,1,42.59,63.919,1,1,0,0,1,42.194,64Zm-20.18-2H41.986A23.053,23.053,0,0,0,56,41.045,23.032,23.032,0,0,0,41.782,20H22.218A23.032,23.032,0,0,0,8,41.045,23.053,23.053,0,0,0,22.014,62Z"></path><path d="M41,20H23a1,1,0,0,1-1-1V13a1,1,0,0,1,1-1H41a1,1,0,0,1,1,1v6A1,1,0,0,1,41,20ZM24,18H40V14H24Z"></path><path d="M36,14H28a1,1,0,0,1-1-1V5a1,1,0,0,1,1-1h8a1,1,0,0,1,1,1v8A1,1,0,0,1,36,14Zm-7-2h6V6H29Z"></path><path d="M32,50a1.675,1.675,0,0,1-.947-.291h0C28.03,47.635,21,42.383,21,38.38,21,33.671,24.492,32,27.483,32A7.762,7.762,0,0,1,32,33.776,7.762,7.762,0,0,1,36.517,32C39.508,32,43,33.671,43,38.38c0,4-7.03,9.255-10.053,11.328A1.675,1.675,0,0,1,32,50Zm.183-1.941h0ZM27.483,34C26.136,34,23,34.427,23,38.38c0,2.3,4.489,6.432,9,9.552,4.511-3.121,9-7.248,9-9.552C41,34.427,37.864,34,36.517,34a6.539,6.539,0,0,0-3.811,1.8,1,1,0,0,1-1.412,0A6.5,6.5,0,0,0,27.483,34Z"></path><path d="M32,50a1.675,1.675,0,0,1-.947-.291h0C28.03,47.635,21,42.383,21,38.38,21,33.671,24.492,32,27.483,32A7.762,7.762,0,0,1,32,33.776,7.762,7.762,0,0,1,36.517,32C39.508,32,43,33.671,43,38.38c0,4-7.03,9.255-10.053,11.328A1.675,1.675,0,0,1,32,50Zm.183-1.941h0ZM27.483,34C26.136,34,23,34.427,23,38.38c0,2.3,4.489,6.432,9,9.552,4.511-3.121,9-7.248,9-9.552C41,34.427,37.864,34,36.517,34a6.539,6.539,0,0,0-3.811,1.8,1,1,0,0,1-1.412,0A6.5,6.5,0,0,0,27.483,34Z"></path><rect width="2" height="2" x="32" y="8"></rect><path d="M40,14H24a1,1,0,0,1-1-1V1a1,1,0,0,1,1-1H40a1,1,0,0,1,1,1V13A1,1,0,0,1,40,14ZM25,12H39V2H25Z"></path><path d="M54.526,17a4.566,4.566,0,0,1-.726-.059,4.178,4.178,0,0,1-3.446-4.11.213.213,0,0,0-.159-.18.852.852,0,0,1-.1-.044L44.561,9.9a1,1,0,0,1,0-1.8l5.53-2.708a.852.852,0,0,1,.1-.044.213.213,0,0,0,.159-.18A4.162,4.162,0,0,1,54.309,1a4.308,4.308,0,0,1,3.166,1.158A3.929,3.929,0,0,1,58.576,4,5.086,5.086,0,0,1,64,8.855a4.547,4.547,0,0,1-1.51,3.411A5.219,5.219,0,0,1,58.574,14a3.978,3.978,0,0,1-1.273,2A4.276,4.276,0,0,1,54.526,17Zm-3.6-6.211a2.211,2.211,0,0,1,1.428,2.042,2.16,2.16,0,0,0,1.769,2.136,2.305,2.305,0,0,0,1.883-.5,1.914,1.914,0,0,0,.7-1.469c-.006.01-.011-.03-.014-.088a1,1,0,0,1,1.24-1.029c.832.207,1.757.3,3.175-1.063A2.577,2.577,0,0,0,62,8.915,3.116,3.116,0,0,0,58.765,6a3.415,3.415,0,0,0-.833.117,1,1,0,0,1-1.24-1.029c0-.029.012-.123.017-.152A1.9,1.9,0,0,0,56.1,3.612,2.275,2.275,0,0,0,54.407,3,2.19,2.19,0,0,0,52.354,5.17a2.211,2.211,0,0,1-1.428,2.042L47.273,9Z"></path><path d="M40.971,61H23.029a.979.979,0,0,1-.388-.079A21.9,21.9,0,0,1,9.1,43.1l1.99-.2A19.892,19.892,0,0,0,23.234,59H40.766A19.771,19.771,0,0,0,53,41.039L55,41A21.79,21.79,0,0,1,41.359,60.921.979.979,0,0,1,40.971,61Z"></path><path d="M11,41.039H9A21.08,21.08,0,0,1,14.136,27.35,1,1,0,0,1,14.9,27h34.21a1,1,0,0,1,.759.349A21.3,21.3,0,0,1,54,34.692l-1.9.616A19.291,19.291,0,0,0,48.639,29H15.361A18.785,18.785,0,0,0,11,41.039Z"></path><path d="M52.9,39.1a18.516,18.516,0,0,0-.3-1.9l1.957-.41c.144.689.254,1.4.329,2.1Z"></path></g></svg><style>@media (prefers-color-scheme: light) { :root { filter: none; } }
@media (prefers-color-scheme: dark) { :root { filter: none; } }
</style></svg>